<?xml version="1.0" standalone="no"?>
<!DOCTYPE svg PUBLIC "-//W3C//DTD SVG 20010904//EN"
 "http://www.w3.org/TR/2001/REC-SVG-20010904/DTD/svg10.dtd">
<svg version="1.0" xmlns="http://www.w3.org/2000/svg"
 width="500.000000pt" height="500.000000pt" viewBox="0 0 500.000000 500.000000"
 preserveAspectRatio="xMidYMid meet">
<metadata>
Created by potrace 1.14, written by Peter Selinger 2001-2017
</metadata>
<g transform="translate(0.000000,500.000000) scale(0.100000,-0.100000)"
fill="#000000" stroke="none">
<path d="M2339 4996 c-2 -2 -42 -6 -89 -10 -189 -14 -453 -77 -655 -156 -668
-262 -1189 -792 -1439 -1464 -41 -109 -100 -317 -110 -384 -3 -24 -7 -46 -10
-50 -2 -4 -7 -38 -11 -77 -4 -38 -9 -74 -12 -79 -13 -20 -10 -443 2 -546 40
-322 110 -560 246 -835 381 -774 1132 -1296 1989 -1382 116 -12 465 -8 560 6
124 18 136 20 234 42 207 46 355 99 562 200 483 236 881 630 1123 1113 74 147
80 160 127 292 61 171 111 388 131 579 20 178 4 545 -32 730 -14 77 -68 281
-76 290 -5 5 -9 16 -9 25 0 29 -97 258 -160 377 -83 157 -194 321 -310 458
-44 52 -222 229 -287 284 -35 30 -77 76 -94 102 -68 107 -209 199 -303 199
-31 0 -72 13 -142 46 -55 25 -108 49 -119 54 -11 4 -33 13 -50 20 -66 27 -205
72 -295 95 -99 25 -123 29 -230 45 -36 6 -78 13 -95 16 -33 6 -440 15 -446 10z"/>
</g>
</svg>
